.
 
http://www.scenetime.com    -  Hottest private tracker on the net. !!!

New release on http://www.scenetime.com

        Seed back for speed


...................................NFO:.................................................
***********************************************************************************************
                                        General
***********************************************************************************************

omplete name                     : Jonny English 2011 DVDRIP XVID - SCR0N.avi
Format                           : AVI
Format/Info                      : Audio Video Interleave
File size                        : 1.36 GiB
Duration                         : 1h 37mn
Overall bit rate                 : 2 005 Kbps


***********************************************************************************************
                                         Video
***********************************************************************************************

ID                               : 0
Format                           : MPEG-4 Visual
Format profile                   : Advanced Simple@L5
Format settings, BVOP            : 2
Format settings, QPel            : No
Format settings, GMC             : No warppoints
Format settings, Matrix          : Default (H.263)
Muxing mode                      : Packed bitstream
Codec ID                         : XVID
Codec ID/Hint                    : XviD
Duration                         : 1h 37mn
Bit rate                         : 1 804 Kbps
Width                            : 720 pixels
Height                           : 304 pixels
Display aspect ratio             : 2.35:1
Frame rate                       : 25.000 fps
Color space                      : YUV
Chroma subsampling               : 4:2:0
Bit depth                        : 8 bits
Scan type                        : Progressive
Compression mode                 : Lossy
Bits/(Pixel*Frame)               : 0.330
Stream size                      : 1.23 GiB (90%)


***********************************************************************************************
                                         Audio
***********************************************************************************************

ID                               : 1
Format                           : MPEG Audio
Format version                   : Version 1
Format profile                   : Layer 3
Codec ID                         : 55
Codec ID/Hint                    : MP3
Duration                         : 1h 37mn
Bit rate mode                    : Constant
Bit rate                         : 192 Kbps
Channel(s)                       : 2 channels
Sampling rate                    : 44.1 KHz
Compression mode                 : Lossy
Stream size                      : 134 MiB (10%)
Alignment                        : Split accross interleaves
Interleave, duration             : 40 ms (1.00 video frame)
Interleave, preload duration     : 500 ms



IMDB :  http://www.imdb.com/title/tt1634122/



Subtitles:

As source has included

 

SCR0N is looking for silver supplier,cammers,syncers,Audio and anymore stuff.....

If yall got anything to offer...holler us at scron@hushmail.com

This is the same video as before , but with english audio..


SCREEN SHOTS :


[IMG]http://imagestorage.org/images/89623747488850729363.jpg[/IMG]
[IMG]http://imagestorage.org/images/78631724777519022210.jpg[/IMG]
[IMG]http://imagestorage.org/images/62955725016382379761.jpg[/IMG]
[IMG]http://imagestorage.org/images/96095646783633554549.jpg[/IMG]
[IMG]http://imagestorage.org/images/91931800279473910374.jpg[/IMG]
[IMG]http://imagestorage.org/images/14466316814225666858.jpg[/IMG]
[IMG]http://imagestorage.org/images/70671542216504858377.jpg[/IMG]
[IMG]http://imagestorage.org/images/06857244488349218451.jpg[/IMG]
[IMG]http://imagestorage.org/images/55883261311401319204.jpg[/IMG]